<svg width="29" height="19" viewBox="0 0 29 19" fill="none" xmlns="http://www.w3.org/2000/svg">
<path d="M0.735795 18V0.545454H12.4972V3.58807H4.42614V7.74716H11.892V10.7898H4.42614V14.9574H12.5312V18H0.735795Z" fill="black"/>
<path d="M21.8402 18.2386C20.5277 18.2386 19.3601 18.0256 18.3374 17.5994C17.3203 17.1676 16.522 16.5795 15.9425 15.8352C15.3629 15.0909 15.0732 14.2472 15.0732 13.304C15.0732 12.5767 15.2379 11.9091 15.5675 11.3011C15.9027 10.6875 16.3572 10.179 16.9311 9.77557C17.505 9.36648 18.147 9.10511 18.8572 8.99148V8.87216C17.9254 8.68466 17.1697 8.23295 16.5902 7.51705C16.0107 6.79545 15.7209 5.95739 15.7209 5.00284C15.7209 4.09943 15.9851 3.29545 16.5135 2.59091C17.0419 1.88068 17.7663 1.32386 18.6868 0.920454C19.6129 0.511363 20.6641 0.306818 21.8402 0.306818C23.0163 0.306818 24.0646 0.511363 24.9851 0.920454C25.9112 1.32955 26.6385 1.8892 27.1669 2.59943C27.6953 3.30398 27.9624 4.10511 27.968 5.00284C27.9624 5.96307 27.6669 6.80114 27.0817 7.51705C26.4964 8.23295 25.7464 8.68466 24.8317 8.87216V8.99148C25.5305 9.10511 26.1641 9.36648 26.7322 9.77557C27.3061 10.179 27.7607 10.6875 28.0959 11.3011C28.4368 11.9091 28.6101 12.5767 28.6158 13.304C28.6101 14.2472 28.3175 15.0909 27.7379 15.8352C27.1584 16.5795 26.3572 17.1676 25.3345 17.5994C24.3175 18.0256 23.1527 18.2386 21.8402 18.2386ZM21.8402 15.5284C22.4254 15.5284 22.9368 15.4233 23.3743 15.2131C23.8118 14.9972 24.1527 14.7017 24.397 14.3267C24.647 13.946 24.772 13.5085 24.772 13.0142C24.772 12.5085 24.6442 12.0625 24.3885 11.6761C24.1328 11.2841 23.7862 10.9773 23.3487 10.7557C22.9112 10.5284 22.4084 10.4148 21.8402 10.4148C21.2777 10.4148 20.7749 10.5284 20.3317 10.7557C19.8885 10.9773 19.5391 11.2841 19.2834 11.6761C19.0334 12.0625 18.9084 12.5085 18.9084 13.0142C18.9084 13.5085 19.0305 13.946 19.2749 14.3267C19.5192 14.7017 19.8629 14.9972 20.3061 15.2131C20.7493 15.4233 21.2607 15.5284 21.8402 15.5284ZM21.8402 7.73011C22.3288 7.73011 22.7635 7.63068 23.1442 7.43182C23.5249 7.23295 23.8232 6.95739 24.0391 6.60511C24.255 6.25284 24.3629 5.84659 24.3629 5.38636C24.3629 4.93182 24.255 4.53409 24.0391 4.19318C23.8232 3.84659 23.5277 3.5767 23.1527 3.38352C22.7777 3.18466 22.3402 3.08523 21.8402 3.08523C21.3459 3.08523 20.9084 3.18466 20.5277 3.38352C20.147 3.5767 19.8487 3.84659 19.6328 4.19318C19.4226 4.53409 19.3175 4.93182 19.3175 5.38636C19.3175 5.84659 19.4254 6.25284 19.6413 6.60511C19.8572 6.95739 20.1555 7.23295 20.5362 7.43182C20.9169 7.63068 21.3516 7.73011 21.8402 7.73011Z" fill="#1570EF"/>
</svg>
